<svg version="1.2" xmlns="http://www.w3.org/2000/svg" viewBox="0 0 512 512" width="512" height="512">
	<title>image_1707327388498_drv44g-svg</title>
	<style>
		.s0 { fill: #000000 } 
	</style>
	<path id="Layer" fill-rule="evenodd" class="s0" d="m0 0h513l-0.5 511.5-512.5 0.5zm0.5 256.5c0 140.8 0.1 198.3 0.3 127.7 0.1-70.6 0.1-185.8 0-256-0.2-70.2-0.3-12.5-0.3 128.3zm19.3-239.8l-5.8 0.4v479.9h483v-481l-235.8 0.2c-129.6 0.1-238.3 0.3-241.4 0.5zm234.1 51.8c1.2 0.7 5.7 20.4 7.1 30.7 1.3 10.2 4 15.7 10.9 21.9 7.2 6.7 9.1 9.5 9.1 14.2 0 5.7-3.3 11.3-9 15-2.7 1.7-5 3.5-5 4 0 0.4 2.6 0.7 5.8 0.7 19.5 0 36.2 11.8 36.2 25.5 0 7.7-2.3 11-15.9 22.6-4.9 4.2-4.3 7.8 2.1 13.1 14.4 12.1 16.2 14.3 17.4 21.5l0.6 3.8 17.1 0.1c25.1 0.1 38.6 3.8 49.1 13.4 9.5 8.8 11.2 18.6 5.1 30.8-6.9 13.6-19.6 22.9-44.5 32.2-15 5.6-21.3 9.7-27.2 17.5-4.8 6.4-6.8 12.2-6.8 20.1 0 15.6 8.7 30.3 25.8 43.3 2.3 1.8 4.2 4.1 4.2 5.1 0 3.5-22.9 23.1-37.8 32.3-13.9 8.6-37.6 20.7-40.5 20.7-4.1 0-28.5-11.2-44.2-20.3-17.6-10.2-38.5-27.7-38.5-32.2 0-1.6 1.8-3.6 6.4-6.9 15.4-11.3 25-30.2 23.1-45.2-0.9-7.5-5.6-16.2-11.8-22.1-6.2-5.9-10.4-8.2-22.5-12.4-29.2-10.3-47.1-27-47.2-44.2 0-7.1 2.2-11.8 8.3-17.4 10.9-10.1 30.6-15.3 58.2-15.3h7l1.8-5.2c1.5-4.3 3.6-7 11.3-14.4 8.2-8 9.4-9.6 9.4-12.5 0-4.2-0.7-5.2-4.6-7.2-12.1-6.2-17-20.7-10.5-30.9 5.1-8 17.2-14.3 30.1-15.5 8.2-0.8 8.5-1.4 3.3-5.3-6.5-4.8-9.3-9.2-9.3-14.8 0-4.3 0.3-4.8 7.8-12.1 8.9-8.6 10.4-11.7 12.2-26.1 1.3-10.1 3.9-26 4.5-27.8 0.3-0.7 0.9-1.1 1.4-0.7zm-4.1 52.5c-0.4 1.4-3.2 5.8-6.3 9.7-3 4-5.5 7.7-5.5 8.2 0 1.6 3.9 3.3 6.8 2.9 4.3-0.5 6.4-5.8 6-15.5-0.2-5.2-0.5-7-1-5.3zm8.3 4.1c0 5.7 2.9 14.9 5.1 16.2 2 1.3 6.8-0.5 6.8-2.5 0-0.7-2.7-5.1-6-9.7l-6-8.3zm9.4 40.6c4.9 11.7 6.3 19.8 4.6 26.1-0.7 2.4-1 4.5-0.8 4.7 0.9 0.9 11.9-2.6 17.7-5.6 5.6-3 6.6-3.9 6.8-6.5 0.6-6.8-7.3-14-20-18-9.4-2.9-9.2-2.9-8.3-0.7zm-35.6 1.5c-3.6 1.3-8.3 3.6-10.3 5.1-4.4 3.4-9 10.1-8.2 12 1.5 4.1 17 11.6 24.1 11.6h3l-0.2-10.2c-0.2-6.5 0.2-12.2 1.1-15.5 1.3-5.1 1.3-5.3-0.8-5.2-1.1 0-5 1-8.7 2.2zm-2.9 51c0 6.6-2.7 15.8-5.8 19.7-1.6 2-5.7 5.4-9.2 7.7-7.7 5.1-8.7 6.6-6.5 9.9 7.5 11.4 24.3 6.9 31.4-8.5 2.2-4.8 2.5-6.9 2.6-17v-11.4l-4.1-1.3c-2.3-0.6-5.1-1.7-6.2-2.3-2-1.1-2.2-0.9-2.2 3.2zm43.5-1.6l-6 2.1 0.2 8.9c0.1 12.1 2.8 19 10.3 26.4 8.4 8.4 16.8 9.9 22.5 4.2 2.5-2.5 3.2-5.5 1.9-8.7-0.3-0.9-3.6-3.2-7.4-5.1-9.8-5.2-13.4-11-14.8-23.7l-0.7-6.3zm-114.1 46.4c-5.2 1.1-11.4 3.6-11.4 4.8 0 0.9 3.4 2.1 19.9 6.6 17.8 5 26 9.3 47.5 24.9 10.4 7.6 21.9 13.2 31.4 15.3 6.6 1.5 8.9 1.6 15.7 0.6 10.6-1.6 24.2-8.3 40-19.7 20.1-14.5 28.3-18.3 48.5-22.5 5.8-1.2 11.6-2.8 13-3.5l2.5-1.3-3.5-2.1c-5.3-3.2-13.2-4.4-25-3.8-16.1 0.8-28.6 5.9-43.6 17.8-8.4 6.7-17.7 12.2-25.1 14.9-5.2 1.9-7.6 2.2-14.6 1.8-10.9-0.6-18.7-4.3-35.5-16.7-14-10.3-22.2-14.6-31.9-16.6-7.3-1.6-21.2-1.8-27.9-0.5zm67.2 98.9c-0.2 1.4-0.7 5.3-1.1 8.6-1.2 10.5-6.8 25.4-12.7 33.8-1.1 1.5-1.7 3.3-1.5 4 0.6 1.5 23.8 13.7 26 13.7 1.7 0 3-4.3 5.2-18 2-12.6 3.2-38.5 1.8-39.4-0.6-0.3-4.7-1.7-9.1-3l-8.1-2.3zm47.7 0.5l-9.3 3.1v11.5c0 6.3 0.3 19.9 0.7 30.3 0.5 15.4 0.9 18.7 2.1 18.7 1.5 0 33-16.4 34.6-18 0.5-0.5-0.2-2.1-1.6-3.9-7.1-8.4-13.3-24.7-14.4-37.7-0.4-4.5-1.1-7.3-1.8-7.3-0.6 0.1-5.2 1.6-10.3 3.3z"/>
</svg>